Coordinates
version=1
nRows=22
nColumns=24
inDegrees=yes

Units are S.I. units (second, meters, Newtons, ...)
Angles are in degrees.

endheader
time	pelvis_tilt	pelvis_list	pelvis_rotation	pelvis_tx	pelvis_ty	pelvis_tz	hip_flexion_r	hip_adduction_r	hip_rotation_r	knee_angle_r	ankle_angle_r	subtalar_angle_r	mtp_angle_r	hip_flexion_l	hip_adduction_l	hip_rotation_l	knee_angle_l	ankle_angle_l	subtalar_angle_l	mtp_angle_l	lumbar_extension	lumbar_bending	lumbar_rotation
      0.92050000	    -10.49687461	      0.82039622	      0.01545601	     -0.15343293	      1.03965308	      0.30581102	      1.55077083	      1.07962553	      0.38534114	    -13.22999578	     20.69687197	     -4.79704036	      0.72529433	     38.82208909	     -1.79009447	     -0.96281097	    -20.75124329	      9.53960502	      6.33061797	      2.26640887	     -0.91007252	      1.85579618	      4.54711361
      0.92466667	    -10.51547826	      0.74236087	     -0.04938695	     -0.14753187	      1.03822245	      0.30530997	      1.34946394	      1.11839859	      0.28531227	    -13.52301614	     21.02069688	     -4.52970898	      0.58561410	     38.84746876	     -1.81481515	     -0.82059332	    -20.37810326	      9.57735049	      6.14974380	      2.21760071	     -0.82871769	      1.94409092	      4.57942436
      0.92883333	    -10.52946328	      0.64193287	     -0.12492342	     -0.14157643	      1.03682780	      0.30487918	      1.12319972	      1.19751277	      0.32855072	    -13.77281399	     21.24252440	     -4.51435099	      0.55877134	     38.87960355	     -1.87950797	     -0.75614280	    -20.12299765	      9.66230709	      6.12485154	      2.20663781	     -0.75879957	      2.05267670	      4.59428033
      0.93300000	    -10.55559890	      0.57187438	     -0.19935514	     -0.13559345	      1.03541361	      0.30437686	      0.96012117	      1.22138015	      0.22648080	    -14.13931060	     21.53417837	     -4.21045595	      0.44920795	     38.90740443	     -1.89566207	     -0.63770440	    -19.92576913	      9.69417723	      5.95166567	      2.15580863	     -0.65257458	      2.13479247	      4.63616492
      0.93716667	    -10.54517947	      0.49667748	     -0.28219508	     -0.12957601	      1.03409161	      0.30395036	      0.74068320	      1.26740261	      0.27353846	    -14.47017820	     21.73868849	     -4.17192199	      0.42352718	     38.90547440	     -1.93274897	     -0.58567607	    -19.84044292	      9.75571782	      5.89921760	      2.14135822	     -0.59840822	      2.21322056	      4.64620576
      0.94133333	    -10.53062104	      0.44489927	     -0.36218859	     -0.12351680	      1.03279289	      0.30346208	      0.56108175	      1.26497880	      0.15837419	    -14.90115380	     22.00240237	     -3.82960224	      0.34918435	     38.87693051	     -1.93162980	     -0.49453708	    -19.79551984	      9.77308207	      5.75764232	      2.09360813	     -0.53948006	      2.26494866	      4.68596111
      0.94550000	    -10.54095356	      0.38367239	     -0.45117163	     -0.11742423	      1.03148643	      0.30300237	      0.41143596	      1.28027812	      0.14043321	    -15.34024030	     22.19986019	     -3.64097015	      0.29951732	     38.88055568	     -1.94482178	     -0.41657048	    -19.85035256	      9.78659642	      5.66191608	      2.05595023	     -0.43895228	      2.32684921	      4.70550298
      0.94966667	    -10.54410759	      0.32828023	     -0.53702342	     -0.11132112	      1.03020965	      0.30254176	      0.28100505	      1.28417415	      0.09050179	    -15.84025494	     22.38159086	     -3.41168567	      0.26157174	     38.88175882	     -1.94985216	     -0.33857736	    -19.99470008	      9.78098021	      5.57520607	      2.01600087	     -0.36013178	      2.36738600	      4.72353142
      0.95383333	    -10.51471861	      0.29492130	     -0.62855519	     -0.10517961	      1.02904865	      0.30209067	      0.13123604	      1.26026669	      0.05031503	    -16.37521651	     22.54127769	     -3.16804886	      0.24932404	     38.83320677	     -1.93365618	     -0.25988474	    -20.18986032	      9.75101287	      5.49176512	      1.98375185	     -0.31307984	      2.38497530	      4.73778415
      0.95800000	    -10.50905856	      0.24686688	     -0.71460033	     -0.09903288	      1.02786046	      0.30161581	      0.03024506	      1.24818374	     -0.00228336	    -16.95878677	     22.65909332	     -2.93087632	      0.26283640	     38.82614225	     -1.92656498	     -0.17219989	    -20.48642918	      9.70587715	      5.42071676	      1.95578375	     -0.23019086	      2.41820005	      4.74504817
      0.96216667	    -10.47696253	      0.20834617	     -0.80839653	     -0.09288082	      1.02678175	      0.30116300	     -0.07862547	      1.22446875	     -0.02230621	    -17.58379546	     22.75768551	     -2.68697591	      0.29697315	     38.78529530	     -1.91293952	     -0.07333607	    -20.83996860	      9.64264532	      5.35664459	      1.93932487	     -0.19041748	      2.43745160	      4.74775456
      0.96633333	    -10.48280153	      0.16700359	     -0.89605620	     -0.08669943	      1.02566563	      0.30067344	     -0.11572555	      1.19469926	     -0.09182474	    -18.27505919	     22.80712427	     -2.40868345	      0.35767224	     38.79466380	     -1.89696270	      0.03198339	    -21.27397671	      9.56229733	      5.29956623	      1.92647243	     -0.08678359	      2.46288899	      4.74699781
      0.97050000	    -10.44549255	      0.14320055	     -0.98549554	     -0.08051481	      1.02469179	      0.30017716	     -0.17185743	      1.13854210	     -0.17020768	    -19.01893028	     22.83150396	     -2.10383365	      0.44573450	     38.75492803	     -1.86419216	      0.13416512	    -21.75794857	      9.46524049	      5.23230478	      1.91748474	     -0.04056723	      2.46991800	      4.73783558
      0.97466667	    -10.43021690	      0.11892419	     -1.06909696	     -0.07431984	      1.02372745	      0.29967080	     -0.17611828	      1.07865252	     -0.25347750	    -19.82148944	     22.80140655	     -1.78607336	      0.56676629	     38.74548555	     -1.82804663	      0.25837640	    -22.30205634	      9.36321039	      5.16552046	      1.91210084	      0.03480094	      2.46420871	      4.72224547
      0.97883333	    -10.40319898	      0.09950959	     -1.14863297	     -0.06812956	      1.02283837	      0.29913227	     -0.15956154	      1.00442329	     -0.35699745	    -20.68901893	     22.73333299	     -1.44326795	      0.73489369	     38.72920228	     -1.78446630	      0.38058098	    -22.89755911	      9.26301458	      5.09334217	      1.90919885	      0.09424347	      2.45148909	      4.69856802
      0.98300000	    -10.37667303	      0.09352375	     -1.22207240	     -0.06191493	      1.02202328	      0.29857098	     -0.11690909	      0.90725795	     -0.48250041	    -21.59487481	     22.52736183	     -1.17967377	      3.97941492	     38.70923393	     -1.71973321	      0.53812783	    -23.52497824	      9.14835966	      4.95224564	      1.89399110	      0.16514123	      2.42426516	      4.66616883
      0.98716667	    -10.33660973	      0.06939433	     -1.30970663	     -0.05573371	      1.02127990	      0.29803670	     -0.05220735	      0.82838531	     -0.56990312	    -22.57302739	     22.34393409	     -0.82485920	      4.03258142	     38.69595450	     -1.69455931	      0.62957468	    -24.22524376	      9.09296428	      4.92751144	      1.89528242	      0.19890144	      2.42383888	      4.63515056
      0.99133333	    -10.29806552	      0.05773928	     -1.38517582	     -0.04954341	      1.02060236	      0.29745229	      0.04995676	      0.72434396	     -0.69841902	    -23.61862559	     22.10064034	     -0.45885684	      4.12895169	     38.68193772	     -1.64604798	      0.74337788	    -24.94520504	      9.04250845	      4.84128820	      1.89521879	      0.24761248	      2.40701322	      4.59644731
      0.99550000	    -10.26460236	      0.05848473	     -1.46146439	     -0.04336205	      1.01997919	      0.29685442	      0.19950851	      0.59570913	     -0.85199336	    -24.73968110	     21.82651532	     -0.06171973	      4.29735282	     38.66897290	     -1.58700756	      0.86370148	    -25.67890704	      9.00131343	      4.74502601	      1.89225540	      0.29473678	      2.36796754	      4.54704704
      0.99966667	    -10.22790511	      0.05801094	     -1.53523946	     -0.03718003	      1.01944571	      0.29625196	      0.37496448	      0.46502520	     -0.98914942	    -25.90705802	     21.44922960	      0.31863833	      4.50303657	     38.64934744	     -1.53066254	      0.97426351	    -26.42431108	      8.99537326	      4.64382841	      1.88673876	      0.33757794	      2.32972671	      4.49703657
      1.00383333	    -10.17049232	      0.07601660	     -1.60306855	     -0.03100758	      1.01901235	      0.29561962	      0.56848231	      0.30076721	     -1.15636576	    -27.13532546	     20.93896940	      0.60172275	      9.15799299	     38.59667961	     -1.45345783	      1.07546735	    -27.16000995	      8.98021493	      4.49512948	      1.66852051	      0.36237945	      2.28248415	      4.42497711
      1.00800000	    -10.10824270	      0.08494656	     -1.66778386	     -0.02485063	      1.01865262	      0.29499248	      0.79054655	      0.14313019	     -1.31632913	    -28.42453573	     20.41710642	      0.97194679	      9.21446086	     38.53630716	     -1.39113217	      1.15795368	    -27.90265295	      9.05913087	      4.44167872	      1.66750680	      0.36768415	      2.22718855	      4.38002944
